<svg width="32" height="32" viewBox="0 0 32 32" fill="none" xmlns="http://www.w3.org/2000/svg">
<path d="M20.6667 2.86721H21.6667V1.86721H20.6667V2.86721ZM2 2.86721V1.86721H1V2.86721H2ZM2 23.5311H1V24.5311L2 24.5311L2 23.5311ZM6.73333 1V0H4.73333V1H6.73333ZM4.73333 4.73444V5.73444H6.73333V4.73444H4.73333ZM12.3333 1V0H10.3333V1H12.3333ZM10.3333 4.73444V5.73444H12.3333V4.73444H10.3333ZM17.9333 1V0H15.9333V1H17.9333ZM15.9333 4.73444V5.73444H17.9333V4.73444H15.9333ZM23.5333 19.7967V18.7967H21.5333V19.7967H23.5333ZM22.5333 23.5311H21.5333V24.5311H22.5333V23.5311ZM24.4 24.5311H25.4V22.5311H24.4V24.5311ZM29 23.5311C29 27.1041 26.1045 30 22.5333 30V32C27.2096 32 31 28.2081 31 23.5311H29ZM22.5333 30C18.9622 30 16.0667 27.1041 16.0667 23.5311H14.0667C14.0667 28.2081 17.8571 32 22.5333 32V30ZM16.0667 23.5311C16.0667 19.9582 18.9622 17.0622 22.5333 17.0622V15.0622C17.8571 15.0622 14.0667 18.8542 14.0667 23.5311H16.0667ZM22.5333 17.0622C26.1045 17.0622 29 19.9582 29 23.5311H31C31 18.8542 27.2096 15.0622 22.5333 15.0622V17.0622ZM21.6667 16.2976V2.86721H19.6667V16.2976H21.6667ZM20.6667 1.86721H2V3.86721H20.6667V1.86721ZM1 2.86721V23.5311H3V2.86721H1ZM2 24.5311L15.0667 24.5311L15.0667 22.5311L2 22.5311L2 24.5311ZM4.73333 1V4.73444H6.73333V1H4.73333ZM10.3333 1V4.73444H12.3333V1H10.3333ZM15.9333 1V4.73444H17.9333V1H15.9333ZM6.66667 11.4606H8.53333V9.46058H6.66667V11.4606ZM10.4 11.4606H12.2667V9.46058H10.4V11.4606ZM14.1333 11.4606H16V9.46058H14.1333V11.4606ZM6.66667 15.195H8.53333V13.195H6.66667V15.195ZM10.4 15.195H12.2667V13.195H10.4V15.195ZM14.1333 15.195H16V13.195H14.1333V15.195ZM6.66667 18.9295H8.53333V16.9295H6.66667V18.9295ZM10.4 18.9295H12.2667V16.9295H10.4V18.9295ZM21.5333 19.7967V23.5311H23.5333V19.7967H21.5333ZM22.5333 24.5311H24.4V22.5311H22.5333V24.5311Z" fill="black"/>
</svg>
