<svg width="24" height="24" viewBox="0 0 24 24" fill="none" xmlns="http://www.w3.org/2000/svg">
<g clip-path="url(#clip0_293_1265)">
<path d="M3.73859 10.5851V20.2614C3.73859 21.7739 4.9647 23 6.47718 23H17.5228C19.0353 23 20.2614 21.7739 20.2614 20.2614V10.5851M3.73859 10.5851H20.2614M3.73859 10.5851H2.36929C1.61308 10.5851 1 11.1981 1 11.9544C1 13.4668 2.22611 14.6929 3.73859 14.6929M20.2614 10.5851H21.6307C22.3869 10.5851 23 11.1981 23 11.9544C23 13.4668 21.7739 14.6929 20.2614 14.6929M9.38145 5.2698L9.09517 4.64791C8.6208 3.61747 9.07158 2.39761 10.102 1.92324C11.1324 1.44892 12.3523 1.89969 12.8266 2.93009L13.1129 3.55202M3.78423 7.84647L18.7101 1M18.6115 3.97352C18.6115 3.97352 17.6433 3.97352 17.1592 4.45766C16.675 4.94175 16.675 5.90998 16.675 5.90998C16.675 5.90998 16.675 6.87825 16.191 7.36234C15.7068 7.84648 14.7386 7.84648 14.7386 7.84648M22.7194 3.97352C22.7194 3.97352 21.7512 3.97352 21.2671 4.45766C20.7829 4.94175 20.7829 5.90998 20.7829 5.90998C20.7829 5.90998 20.7829 6.87825 20.2988 7.36234C19.8147 7.84648 18.8465 7.84648 18.8465 7.84648" stroke="#222222" stroke-width="1.5" stroke-miterlimit="10" stroke-linecap="round" stroke-linejoin="round"/>
</g>
<defs>
<clipPath id="clip0_293_1265">
<rect width="24" height="24" fill="white"/>
</clipPath>
</defs>
</svg>
