<svg width="24" height="24" viewBox="0 0 24 24" fill="none" xmlns="http://www.w3.org/2000/svg">
<g clip-path="url(#clip0_293_1240)">
<path d="M4.72881 9.94915V8.45763C4.72881 4.33887 7.88125 1 12 1C16.1187 1 19.2712 4.33887 19.2712 8.45763V9.94915M4.72881 9.94915C2.66944 9.94915 1 11.6186 1 13.678C1 15.7373 2.66944 17.4068 4.72881 17.4068H6.59322V9.94915L4.72881 9.94915ZM19.2712 9.94915L17.4068 9.94915V17.4068H19.2712M19.2712 9.94915C21.3306 9.94915 23 11.6186 23 13.678C23 15.7373 21.3306 17.4068 19.2712 17.4068M19.2712 17.4068C19.2712 19.4662 17.6017 21.1356 15.5424 21.1356H13.678M13.678 21.1356C13.678 22.1653 12.8432 23 11.8136 23C10.7839 23 9.94915 22.1653 9.94915 21.1356C9.94915 20.1059 10.7839 19.2712 11.8136 19.2712C12.8432 19.2712 13.678 20.1059 13.678 21.1356Z" stroke="#222222" stroke-width="1.5" stroke-miterlimit="10" stroke-linejoin="round"/>
</g>
<defs>
<clipPath id="clip0_293_1240">
<rect width="24" height="24" fill="white"/>
</clipPath>
</defs>
</svg>
