<svg width="24" height="24" viewBox="0 0 24 24" fill="none" xmlns="http://www.w3.org/2000/svg">
<g clip-path="url(#clip0_293_1246)">
<path d="M16.15 12V12.0067M14.2115 5.7719C14.2115 5.67993 14.2179 5.58956 14.2303 5.50101C14.3638 4.54387 15.1951 3.8102 16.1936 3.83029C17.2037 3.85064 18.0405 4.65962 18.0928 5.66856C18.1509 6.78664 17.2603 7.71388 16.1535 7.71388V9.74459M5.56433 14.7842H10.1286M5.56433 17.5228H10.1286M23 7.84648C23 4.06526 19.9347 1 16.1535 1C12.3723 1 9.30707 4.06526 9.30707 7.84648C9.30707 11.6277 12.3723 14.693 16.1535 14.693H23L21.1349 12.5429C22.2911 11.317 23 9.66458 23 7.84648ZM9.51135 9.51134C8.97833 9.37815 8.42075 9.30704 7.84647 9.30704C4.0653 9.30704 1 12.3723 1 16.1535C1 17.9716 1.70897 19.624 2.86516 20.8499L1 23H7.84647C11.6277 23 14.6929 19.9347 14.6929 16.1535C14.6929 15.5792 14.6219 15.0217 14.4887 14.4887C12.0451 13.8782 10.1219 11.9549 9.51135 9.51134Z" stroke="#222222" stroke-width="1.5" stroke-miterlimit="10" stroke-linecap="round" stroke-linejoin="round"/>
</g>
<defs>
<clipPath id="clip0_293_1246">
<rect width="24" height="24" fill="white"/>
</clipPath>
</defs>
</svg>
