<svg width="24" height="24" viewBox="0 0 24 24" fill="none" xmlns="http://www.w3.org/2000/svg">
<g clip-path="url(#clip0_293_1277)">
<path d="M1 21.1356V2.86441C1 1.83474 1.83474 1 2.86441 1H16.063C16.8051 1 17.4068 1.60164 17.4068 2.34377V3.79661M1 21.1356C1 22.1653 1.83474 23 2.86441 23H17.4068V19.2712H2.86441C1.83474 19.2712 1 20.1059 1 21.1356ZM4.54237 1.17992V19.2712M15.5424 6.59322V15.5424M12.7458 15.5424H18.339M9.94915 6.59322L11.5648 9.39104C11.723 9.66497 11.8136 9.98294 11.8136 10.322C11.8136 11.3517 10.9788 12.1864 9.94915 12.1864C8.91949 12.1864 8.08475 11.3517 8.08475 10.322C8.08475 9.98294 8.17526 9.66497 8.33346 9.39104L9.94915 6.59322ZM9.94915 6.59322H21.1356M21.1356 6.59322L22.7513 9.39104C22.9095 9.66497 23 9.98294 23 10.322C23 11.3517 22.1653 12.1864 21.1356 12.1864C20.1059 12.1864 19.2712 11.3517 19.2712 10.322C19.2712 9.98294 19.3617 9.66497 19.5199 9.39104L21.1356 6.59322Z" stroke="#222222" stroke-width="1.5" stroke-miterlimit="10"/>
</g>
<defs>
<clipPath id="clip0_293_1277">
<rect width="24" height="24" fill="white"/>
</clipPath>
</defs>
</svg>
