<svg width="24" height="24" viewBox="0 0 24 24" fill="none" xmlns="http://www.w3.org/2000/svg">
<g clip-path="url(#clip0_293_1231)">
<path d="M6.5 14.75V14.7567M6.5 20.25V20.2567M12 1.04564V22.9544M1.04564 12H22.9544M3.78423 6.52282H9.26141M14.7386 6.52282H20.2158M3.78423 17.4772H9.26141M6.52282 9.26141V3.78423M19.8978 19.8978L15.0566 15.0566M19.8978 15.0566L15.0566 19.8978M2.41494 23C1.63476 23 1 22.3652 1 21.5851V2.41494C1 1.63476 1.63476 1 2.41494 1H21.5851C22.3652 1 23 1.63476 23 2.41494V21.5851C23 22.3652 22.3652 23 21.5851 23H2.41494Z" stroke="#222222" stroke-width="1.5" stroke-miterlimit="10" stroke-linecap="round" stroke-linejoin="round"/>
</g>
<defs>
<clipPath id="clip0_293_1231">
<rect width="24" height="24" fill="white"/>
</clipPath>
</defs>
</svg>
