<svg width="24" height="24" viewBox="0 0 24 24" fill="none" xmlns="http://www.w3.org/2000/svg">
<g clip-path="url(#clip0_293_1259)">
<path d="M4.6875 4.6875L10.6743 10.6743M4.6875 4.6875L0.9375 3.75V0.9375H3.75L4.6875 4.6875ZM13.3257 13.3257L16.2992 16.2992M2.03587 21.9641L4.6875 19.3125M21.9642 2.03583L19.3125 4.6875M19.3125 0.9375C17.2415 0.9375 15.5625 2.61633 15.5625 4.6875C15.5625 5.0212 15.6201 5.33878 15.7019 5.64675L5.64675 15.7019C5.33878 15.6201 5.0212 15.5625 4.6875 15.5625C2.61647 15.5625 0.9375 17.2413 0.9375 19.3125C0.9375 21.3835 2.61647 23.0625 4.6875 23.0625C6.75853 23.0625 8.4375 21.3835 8.4375 19.3125C8.4375 18.9788 8.37994 18.6612 8.29809 18.3533L18.3533 8.29809C18.6612 8.37994 18.9788 8.4375 19.3125 8.4375C21.3835 8.4375 23.0625 6.75853 23.0625 4.6875C23.0625 2.61633 21.3835 0.9375 19.3125 0.9375ZM22.5133 19.8617C23.2455 20.5939 23.2455 21.7811 22.5133 22.5134C21.7811 23.2456 20.5939 23.2456 19.8616 22.5134L14.9733 17.625L17.625 14.9733L22.5133 19.8617Z" stroke="#222222" stroke-width="1.5" stroke-miterlimit="10" stroke-linecap="round" stroke-linejoin="round"/>
</g>
<defs>
<clipPath id="clip0_293_1259">
<rect width="24" height="24" fill="white"/>
</clipPath>
</defs>
</svg>
