<svg width="24" height="24" viewBox="0 0 24 24" fill="none" xmlns="http://www.w3.org/2000/svg">
<g clip-path="url(#clip0_293_1253)">
<path d="M9.32811 14.5853L14.8614 9.05922M21.9785 12.2853L23 14.9464L20.7833 16.7407C20.6303 16.865 20.5283 17.0403 20.498 17.2347L20.0502 20.0504L17.2343 20.4982C17.0399 20.5285 16.8646 20.6305 16.7403 20.7834L14.949 23L12.2877 21.9786C12.1952 21.9451 12.098 21.926 12.0008 21.926C11.9036 21.926 11.8064 21.9435 11.7156 21.9786L9.05419 23L7.25978 20.7834C7.13549 20.6305 6.96017 20.5285 6.76578 20.4982L3.94983 20.0504L3.50202 17.2347C3.47171 17.0403 3.36975 16.865 3.21675 16.7407L1 14.948L2.02154 12.2869C2.09165 12.102 2.09165 11.898 2.01994 11.7148L1 9.05205L3.21675 7.25772C3.36975 7.13344 3.47171 6.95817 3.50202 6.76373L3.94983 3.948L6.76578 3.50024C6.96017 3.46998 7.13549 3.36797 7.25978 3.21502L9.05259 1L11.714 2.02145C11.8972 2.0916 12.1012 2.0916 12.2845 2.02145L14.9458 1L16.7403 3.21657C16.8646 3.36956 17.0399 3.47153 17.2343 3.50184L20.0502 3.9496L20.498 6.76532C20.5283 6.95976 20.6303 7.13503 20.7833 7.25932L23 9.05364L21.9785 11.7148C21.9084 11.898 21.9084 12.102 21.9785 12.2853ZM10.4852 9.01978C10.4852 9.81653 9.83936 10.4624 9.04262 10.4624C8.24587 10.4624 7.60002 9.81653 7.60002 9.01978C7.60002 8.22303 8.24587 7.57718 9.04262 7.57718C9.83936 7.57718 10.4852 8.22303 10.4852 9.01978ZM16.4 14.9803C16.4 15.777 15.7542 16.4229 14.9574 16.4229C14.1607 16.4229 13.5148 15.777 13.5148 14.9803C13.5148 14.1835 14.1607 13.5377 14.9574 13.5377C15.7542 13.5377 16.4 14.1835 16.4 14.9803Z" stroke="#222222" stroke-width="1.5" stroke-miterlimit="10" stroke-linecap="round" stroke-linejoin="round"/>
</g>
<defs>
<clipPath id="clip0_293_1253">
<rect width="24" height="24" fill="white"/>
</clipPath>
</defs>
</svg>
