<svg width="32" height="32" viewBox="0 0 32 32" fill="none" xmlns="http://www.w3.org/2000/svg">
<path d="M19.5436 2H20.5436V1H19.5436V2ZM19.5436 14.4896L19.5436 15.4896L19.5436 15.4896L19.5436 14.4896ZM9.5 14.4896L9.5 13.4896L8.9845 13.4896L8.68545 13.9095L9.5 14.4896ZM7 18L6.18545 18.5801L7 19.7238L7.81455 18.5801L7 18ZM4.5 14.4896L5.31455 13.9095L5.0155 13.4896L4.5 13.4896L4.5 14.4896ZM2 14.4896H1V15.4896L2 15.4896L2 14.4896ZM2 2V1H1V2H2ZM12.5726 26.6888H11.5726V27.6888H12.5726V26.6888ZM22 26.6888L22.7981 26.0862L22.498 25.6888H22V26.6888ZM24.5 30L23.7019 30.6026L24.5 31.6596L25.2981 30.6026L24.5 30ZM27 26.6888V25.6888H26.502L26.2019 26.0862L27 26.6888ZM30 26.6888V27.6888H31V26.6888H30ZM30 14.4896H31V13.4896L30 13.4896L30 14.4896ZM9.95851 9.26141L9.2514 9.96852L9.95851 10.6756L10.6656 9.96852L9.95851 9.26141ZM20.2507 18.1394L19.5436 17.4323L18.1294 18.8465L18.8365 19.5536L20.2507 18.1394ZM22.3219 23.0391L23.029 23.7462L24.4433 22.3319L23.7362 21.6248L22.3219 23.0391ZM23.7362 19.5536L24.4433 18.8465L23.029 17.4323L22.3219 18.1394L23.7362 19.5536ZM18.8365 21.6248L18.1294 22.3319L19.5436 23.7462L20.2507 23.0391L18.8365 21.6248ZM18.5436 2V14.4896H20.5436V2H18.5436ZM19.5436 13.4896L9.5 13.4896L9.5 15.4896L19.5436 15.4896L19.5436 13.4896ZM8.68545 13.9095L6.18545 17.4199L7.81455 18.5801L10.3145 15.0697L8.68545 13.9095ZM7.81455 17.4199L5.31455 13.9095L3.68545 15.0697L6.18545 18.5801L7.81455 17.4199ZM4.5 13.4896L2 13.4896L2 15.4896L4.5 15.4896L4.5 13.4896ZM3 14.4896V2H1V14.4896H3ZM2 3H19.5436V1H2V3ZM11.5726 14.4896V26.6888H13.5726V14.4896H11.5726ZM12.5726 27.6888H22V25.6888H12.5726V27.6888ZM21.2019 27.2913L23.7019 30.6026L25.2981 29.3974L22.7981 26.0862L21.2019 27.2913ZM25.2981 30.6026L27.7981 27.2913L26.2019 26.0862L23.7019 29.3974L25.2981 30.6026ZM27 27.6888H30V25.6888H27V27.6888ZM31 26.6888V14.4896H29V26.6888H31ZM30 13.4896L19.5436 13.4896L19.5436 15.4896L30 15.4896L30 13.4896ZM7.50866 8.22578L9.2514 9.96852L10.6656 8.5543L8.92287 6.81156L7.50866 8.22578ZM10.6656 9.96852L14.1511 6.48304L12.7369 5.06883L9.2514 8.5543L10.6656 9.96852ZM18.8365 19.5536L22.3219 23.0391L23.7362 21.6248L20.2507 18.1394L18.8365 19.5536ZM22.3219 18.1394L18.8365 21.6248L20.2507 23.0391L23.7362 19.5536L22.3219 18.1394Z" fill="black"/>
</svg>
