<svg width="32" height="32" viewBox="0 0 32 32" fill="none" xmlns="http://www.w3.org/2000/svg">
<path d="M3.5 16.25V20.75C3.5 22.1307 4.61931 23.25 6 23.25C7.38069 23.25 8.5 22.1307 8.5 20.75V16.25C8.5 14.8693 7.38069 13.75 6 13.75C4.61931 13.75 3.5 14.8693 3.5 16.25ZM3.5 16.25V13.75C3.5 6.84644 9.09644 1.25 16 1.25C22.9036 1.25 28.5 6.84644 28.5 13.75V16.25M28.5 20.75C28.5 22.1307 27.3807 23.25 26 23.25C24.6193 23.25 23.5 22.1307 23.5 20.75V16.25C23.5 14.8693 24.6193 13.75 26 13.75C27.3807 13.75 28.5 14.8693 28.5 16.25M28.5 20.75V16.25M28.5 20.75V23.25C28.5 26.0114 26.2614 28.25 23.5 28.25H18.5M18.5 28.25C18.5 29.6307 17.3807 30.75 16 30.75C14.6193 30.75 13.5 29.6307 13.5 28.25C13.5 26.8693 14.6193 25.75 16 25.75C17.3807 25.75 18.5 26.8693 18.5 28.25Z" stroke="black" stroke-width="2" stroke-miterlimit="10" stroke-linecap="round" stroke-linejoin="round"/>
</svg>
